# xmcd
#
# Track frame offsets:
#	150
#	22428
#	44227
#	64007
#	79250
#	100329
#	117362
#	137440
#	152865
#	176476
#	198546
#	214433
#
# Disc length: 3154 seconds
#
# Revision: 1
# Processed by: cddbd v1.5.2PL0 Copyright (c) Steve Scherf et al.
# Submitted via: EZCDAudioConverter 8.0.2.1
#
DISCID=b90c500c
DTITLE=Lương Việt Quang - Vol 01. Căn Bản
DYEAR=2011
DGENRE=
TTITLE0=Giấc mơ mang tên em
TTITLE1=Đêm nằm mơ phố
TTITLE2=Bởi thế ta yêu nhau
TTITLE3=Quá khứ cần kết thúc
TTITLE4=Độc thoại
TTITLE5=Trái tim tôi
TTITLE6=Ta thuộc về nhau
TTITLE7=Lời em nói
TTITLE8=Bỏ lại phía sau
TTITLE9=Đêm mưa
TTITLE10=Đừng cho anh mơ
TTITLE11=Cà phê một mình
EXTD=
EXTT0=
EXTT1=
EXTT2=
EXTT3=
EXTT4=
EXTT5=
EXTT6=
EXTT7=
EXTT8=
EXTT9=
EXTT10=
EXTT11=
PLAYORDER=
